# xmcd CD database file
#
# Track frame offsets:
#	150
#	15102
#	28027
#	42460
#	55325
#	67445
#	77212
#	88182
#	100380
#	113647
#	123402
#	134805
#	146282
#	157987
#	168502
#	180035
#
# Disc length: 2547 seconds
#
# Revision: 1
# Processed by: cddbd v1.5.2PL0 Copyright (c) Steve Scherf et al.
# Submitted via: CDex 1.51
#
DISCID=d709f110
DTITLE=Jimmy Scott - timeless
DYEAR=2002
DGENRE=Jazz
TTITLE0=When Did You Leave Heaven?
TTITLE1=After I'm Gone
TTITLE2=Guilty
TTITLE3=Imagination
TTITLE4=Time On My Hands
TTITLE5=Don't Cry Baby
TTITLE6=Someone To Watch Over Me
TTITLE7=Laughing On The Outside
TTITLE8=Please Be Kind
TTITLE9=All Or Nothing At All
TTITLE10=Everybody Needs Somebody
TTITLE11=I'm Through With Love
TTITLE12=Street Of Dreams
TTITLE13=Very Truly Yours
TTITLE14=Address Unknown
TTITLE15=It's Over
EXTD=YEAR: 2002
EXTT0=
EXTT1=
EXTT2=
EXTT3=
EXTT4=
EXTT5=
EXTT6=
EXTT7=
EXTT8=
EXTT9=
EXTT10=
EXTT11=
EXTT12=
EXTT13=
EXTT14=
EXTT15=
PLAYORDER=
